<svg width="24" height="24" xmlns="http://www.w3.org/2000/svg" xmlns:xlink="http://www.w3.org/1999/xlink"><title>Foundation / Icon / 24 / Social networks / Pintrest</title><defs><path d="M3 12a9 9 0 0 0 5.387 8.243c-.025-.628-.004-1.382.157-2.066l1.158-4.904s-.287-.575-.287-1.425c0-1.333.773-2.329 1.735-2.329.819 0 1.214.615 1.214 1.35 0 .824-.524 2.055-.794 3.195-.226.955.478 1.733 1.42 1.733 1.705 0 2.854-2.19 2.854-4.785 0-1.972-1.329-3.448-3.745-3.448-2.73 0-4.431 2.035-4.431 4.31 0 .783.231 1.336.593 1.764.167.198.19.276.13.502-.043.166-.142.564-.184.722-.06.229-.245.31-.45.226-1.258-.514-1.843-1.89-1.843-3.439 0-2.556 2.155-5.622 6.432-5.622 3.436 0 5.697 2.486 5.697 5.156 0 3.53-1.963 6.168-4.856 6.168-.971 0-1.886-.525-2.198-1.122 0 0-.523 2.074-.634 2.474-.19.694-.564 1.387-.905 1.928A9 9 0 1 0 3 12.001z" id="prefix__a"/></defs><g fill="none" fill-rule="evenodd"><path d="M0 0h24v24H0z"/><use fill="#222" xlink:href="#prefix__a"/></g></svg>