<svg width="24" height="24" xmlns="http://www.w3.org/2000/svg" xmlns:xlink="http://www.w3.org/1999/xlink"><title>Foundation / Icon / 24 / Social networks / YouTube</title><defs><path d="M20.688 7.908c-.22-.905-1.003-1.572-1.945-1.672C16.51 6 14.252 5.999 12.003 6c-2.25 0-4.509 0-6.74.236-.943.1-1.726.767-1.946 1.672C3.003 9.197 3 10.603 3 11.929c0 1.327 0 2.734.313 4.022.22.905 1.003 1.573 1.945 1.672 2.232.236 4.491.237 6.74.236 2.25 0 4.509 0 6.74-.236.943-.1 1.726-.767 1.946-1.672.314-1.288.316-2.695.316-4.022 0-1.326.002-2.732-.312-4.021zm-10.382 6.536V9.618l4.657 2.413-4.657 2.413z" id="prefix__a"/></defs><g fill="none" fill-rule="evenodd"><path d="M0 0h24v24H0z"/><use fill="#222" xlink:href="#prefix__a"/></g></svg>